<svg width="20" height="21" viewBox="0 0 20 21" fill="none" xmlns="http://www.w3.org/2000/svg">
<path d="M10 20.9102C8.6263 20.9102 7.33724 20.6497 6.13281 20.1289C4.92839 19.6146 3.87044 18.9017 2.95898 17.9902C2.04753 17.0723 1.33138 16.0143 0.810547 14.8164C0.296224 13.612 0.0390625 12.3229 0.0390625 10.9492C0.0390625 9.57552 0.296224 8.28646 0.810547 7.08203C1.33138 5.8776 2.04753 4.81966 2.95898 3.9082C3.87044 2.99674 4.92839 2.28385 6.13281 1.76953C7.33724 1.2487 8.6263 0.988281 10 0.988281C11.3737 0.988281 12.6628 1.2487 13.8672 1.76953C15.0716 2.28385 16.1296 2.99674 17.041 3.9082C17.9525 4.81966 18.6654 5.8776 19.1797 7.08203C19.7005 8.28646 19.9609 9.57552 19.9609 10.9492C19.9609 12.3229 19.7005 13.612 19.1797 14.8164C18.6654 16.0143 17.9525 17.0723 17.041 17.9902C16.1296 18.9017 15.0716 19.6146 13.8672 20.1289C12.6628 20.6497 11.3737 20.9102 10 20.9102ZM5.23438 10.959C5.23438 11.2064 5.31576 11.4082 5.47852 11.5645C5.64128 11.7142 5.84961 11.7891 6.10352 11.7891H9.16016V14.8555C9.16016 15.1094 9.23503 15.3177 9.38477 15.4805C9.54102 15.6367 9.74284 15.7148 9.99023 15.7148C10.2441 15.7148 10.4492 15.6367 10.6055 15.4805C10.7682 15.3177 10.8496 15.1094 10.8496 14.8555V11.7891H13.916C14.1634 11.7891 14.3685 11.7142 14.5312 11.5645C14.694 11.4082 14.7754 11.2064 14.7754 10.959C14.7754 10.7051 14.694 10.5 14.5312 10.3438C14.375 10.181 14.1699 10.0996 13.916 10.0996H10.8496V7.04297C10.8496 6.78906 10.7682 6.58073 10.6055 6.41797C10.4492 6.25521 10.2441 6.17383 9.99023 6.17383C9.74284 6.17383 9.54102 6.25521 9.38477 6.41797C9.23503 6.58073 9.16016 6.78906 9.16016 7.04297V10.0996H6.10352C5.84961 10.0996 5.64128 10.181 5.47852 10.3438C5.31576 10.5 5.23438 10.7051 5.23438 10.959Z" fill="white"/>
</svg>
