<svg width="19" height="19" viewBox="0 0 19 19" fill="none" xmlns="http://www.w3.org/2000/svg">
    <path fill-rule="evenodd" clip-rule="evenodd" d="M18.9825 9.83301C18.9825 14.8036 14.9531 18.833 9.98254 18.833C5.01198 18.833 0.982544 14.8036 0.982544 9.83301C0.982544 4.86244 5.01198 0.833008 9.98254 0.833008C14.9531 0.833008 18.9825 4.86244 18.9825 9.83301ZM13.8724 5.94369C14.0676 6.13895 14.0676 6.45553 13.8724 6.65079L10.6902 9.83295L13.8724 13.0151C14.0676 13.2104 14.0676 13.527 13.8724 13.7222C13.6771 13.9175 13.3605 13.9175 13.1653 13.7222L9.9831 10.5401L6.80094 13.7222C6.60568 13.9175 6.2891 13.9175 6.09383 13.7222C5.89857 13.527 5.89857 13.2104 6.09383 13.0151L9.27599 9.83295L6.09383 6.65079C5.89857 6.45553 5.89857 6.13895 6.09383 5.94369C6.2891 5.74843 6.60568 5.74843 6.80094 5.94369L9.9831 9.12585L13.1653 5.94369C13.3605 5.74843 13.6771 5.74843 13.8724 5.94369Z" fill="#D9D9D9"/>
</svg>
