<svg width="19" height="22" viewBox="0 0 19 22" fill="none" xmlns="http://www.w3.org/2000/svg">
<path d="M9.49023 0.539062C9.70508 0.539062 9.88737 0.613932 10.0371 0.763672C10.1934 0.913411 10.2715 1.08919 10.2715 1.29102V11.2227L10.2129 12.6875L10.7598 12.1113L12.2637 10.5C12.4004 10.3438 12.5762 10.2656 12.791 10.2656C12.9928 10.2656 13.1621 10.3307 13.2988 10.4609C13.4355 10.5911 13.5039 10.7539 13.5039 10.9492C13.5039 11.138 13.429 11.3105 13.2793 11.4668L10.0566 14.5723C9.95898 14.6699 9.86458 14.7383 9.77344 14.7773C9.6888 14.8099 9.5944 14.8262 9.49023 14.8262C9.39258 14.8262 9.29818 14.8099 9.20703 14.7773C9.1224 14.7383 9.02799 14.6699 8.92383 14.5723L5.71094 11.4668C5.55469 11.3105 5.47656 11.138 5.47656 10.9492C5.47656 10.7539 5.54167 10.5911 5.67188 10.4609C5.80859 10.3307 5.97786 10.2656 6.17969 10.2656C6.40104 10.2656 6.58008 10.3438 6.7168 10.5L8.23047 12.1113L8.77734 12.6875L8.71875 11.2227V1.29102C8.71875 1.08919 8.79362 0.913411 8.94336 0.763672C9.09961 0.613932 9.2819 0.539062 9.49023 0.539062ZM3.89453 21.4277C2.8724 21.4277 2.10417 21.1738 1.58984 20.666C1.08203 20.1647 0.828125 19.4095 0.828125 18.4004V8.76172C0.828125 7.7526 1.08203 6.9974 1.58984 6.49609C2.10417 5.98828 2.8724 5.73438 3.89453 5.73438H6.88281V7.30664H3.91406C3.42578 7.30664 3.05143 7.43685 2.79102 7.69727C2.5306 7.95117 2.40039 8.33203 2.40039 8.83984V18.3223C2.40039 18.8301 2.5306 19.2109 2.79102 19.4648C3.05143 19.7253 3.42578 19.8555 3.91406 19.8555H15.0664C15.5482 19.8555 15.9225 19.7253 16.1895 19.4648C16.4564 19.2109 16.5898 18.8301 16.5898 18.3223V8.83984C16.5898 8.33203 16.4564 7.95117 16.1895 7.69727C15.9225 7.43685 15.5482 7.30664 15.0664 7.30664H12.0977V5.73438H15.0957C16.1178 5.73438 16.8828 5.98828 17.3906 6.49609C17.9049 6.9974 18.1621 7.7526 18.1621 8.76172V18.4004C18.1621 19.4095 17.9049 20.1647 17.3906 20.666C16.8828 21.1738 16.1178 21.4277 15.0957 21.4277H3.89453Z" fill="white"/>
</svg>
