<svg width="23" height="24" viewBox="0 0 23 24" fill="none" xmlns="http://www.w3.org/2000/svg">
<path d="M2.58887 11.1855C1.81576 11.1855 1.23389 10.9902 0.843262 10.5996C0.452637 10.209 0.257324 9.61084 0.257324 8.80518V3.33643C0.257324 2.5389 0.452637 1.94482 0.843262 1.5542C1.23389 1.15544 1.81576 0.956055 2.58887 0.956055H8.15527C8.92839 0.956055 9.51025 1.15544 9.90088 1.5542C10.2915 1.94482 10.4868 2.5389 10.4868 3.33643V8.80518C10.4868 9.61084 10.2915 10.209 9.90088 10.5996C9.51025 10.9902 8.92839 11.1855 8.15527 11.1855H2.58887ZM2.61328 9.46436H8.11865C8.33024 9.46436 8.48893 9.41146 8.59473 9.30566C8.70866 9.19173 8.76562 9.02083 8.76562 8.79297V3.33643C8.76562 3.1167 8.70866 2.95394 8.59473 2.84814C8.48893 2.73421 8.33024 2.67725 8.11865 2.67725H2.61328C2.40169 2.67725 2.243 2.73421 2.13721 2.84814C2.03141 2.95394 1.97852 3.1167 1.97852 3.33643V8.79297C1.97852 9.02083 2.03141 9.19173 2.13721 9.30566C2.243 9.41146 2.40169 9.46436 2.61328 9.46436ZM14.8447 11.1855C14.0635 11.1855 13.4775 10.9902 13.0869 10.5996C12.6963 10.209 12.501 9.61084 12.501 8.80518V3.33643C12.501 2.5389 12.6963 1.94482 13.0869 1.5542C13.4775 1.15544 14.0635 0.956055 14.8447 0.956055H20.3989C21.172 0.956055 21.7539 1.15544 22.1445 1.5542C22.5352 1.94482 22.7305 2.5389 22.7305 3.33643V8.80518C22.7305 9.61084 22.5352 10.209 22.1445 10.5996C21.7539 10.9902 21.172 11.1855 20.3989 11.1855H14.8447ZM14.8691 9.46436H20.3745C20.5942 9.46436 20.7529 9.41146 20.8506 9.30566C20.9564 9.19173 21.0093 9.02083 21.0093 8.79297V3.33643C21.0093 3.1167 20.9564 2.95394 20.8506 2.84814C20.7529 2.73421 20.5942 2.67725 20.3745 2.67725H14.8691C14.6494 2.67725 14.4867 2.73421 14.3809 2.84814C14.2751 2.95394 14.2222 3.1167 14.2222 3.33643V8.79297C14.2222 9.02083 14.2751 9.19173 14.3809 9.30566C14.4867 9.41146 14.6494 9.46436 14.8691 9.46436ZM2.58887 23.4292C1.81576 23.4292 1.23389 23.2339 0.843262 22.8433C0.452637 22.4526 0.257324 21.8545 0.257324 21.0488V15.5923C0.257324 14.7866 0.452637 14.1885 0.843262 13.7979C1.23389 13.4072 1.81576 13.2119 2.58887 13.2119H8.15527C8.92839 13.2119 9.51025 13.4072 9.90088 13.7979C10.2915 14.1885 10.4868 14.7866 10.4868 15.5923V21.0488C10.4868 21.8545 10.2915 22.4526 9.90088 22.8433C9.51025 23.2339 8.92839 23.4292 8.15527 23.4292H2.58887ZM2.61328 21.708H8.11865C8.33024 21.708 8.48893 21.6551 8.59473 21.5493C8.70866 21.4435 8.76562 21.2808 8.76562 21.061V15.5923C8.76562 15.3726 8.70866 15.2098 8.59473 15.104C8.48893 14.9901 8.33024 14.9331 8.11865 14.9331H2.61328C2.40169 14.9331 2.243 14.9901 2.13721 15.104C2.03141 15.2098 1.97852 15.3726 1.97852 15.5923V21.061C1.97852 21.2808 2.03141 21.4435 2.13721 21.5493C2.243 21.6551 2.40169 21.708 2.61328 21.708ZM14.8447 23.4292C14.0635 23.4292 13.4775 23.2339 13.0869 22.8433C12.6963 22.4526 12.501 21.8545 12.501 21.0488V15.5923C12.501 14.7866 12.6963 14.1885 13.0869 13.7979C13.4775 13.4072 14.0635 13.2119 14.8447 13.2119H20.3989C21.172 13.2119 21.7539 13.4072 22.1445 13.7979C22.5352 14.1885 22.7305 14.7866 22.7305 15.5923V21.0488C22.7305 21.8545 22.5352 22.4526 22.1445 22.8433C21.7539 23.2339 21.172 23.4292 20.3989 23.4292H14.8447ZM14.8691 21.708H20.3745C20.5942 21.708 20.7529 21.6551 20.8506 21.5493C20.9564 21.4435 21.0093 21.2808 21.0093 21.061V15.5923C21.0093 15.3726 20.9564 15.2098 20.8506 15.104C20.7529 14.9901 20.5942 14.9331 20.3745 14.9331H14.8691C14.6494 14.9331 14.4867 14.9901 14.3809 15.104C14.2751 15.2098 14.2222 15.3726 14.2222 15.5923V21.061C14.2222 21.2808 14.2751 21.4435 14.3809 21.5493C14.4867 21.6551 14.6494 21.708 14.8691 21.708Z" fill="white"/>
</svg>
