<svg width="23" height="19" viewBox="0 0 23 19" fill="none" xmlns="http://www.w3.org/2000/svg">
<path d="M7.36914 18.0918C6.60156 18.0918 6.01855 17.8984 5.62012 17.5117C5.22168 17.125 5.02246 16.5508 5.02246 15.7891L7.98438 13.2139C8.1543 13.0732 8.32129 12.9678 8.48535 12.8975C8.65527 12.8213 8.8252 12.7832 8.99512 12.7832C9.18262 12.7832 9.36426 12.8184 9.54004 12.8887C9.72168 12.959 9.89746 13.0732 10.0674 13.2314L11.4824 14.5059L15.0332 11.3594C15.2148 11.1953 15.4023 11.0781 15.5957 11.0078C15.7891 10.9316 15.9971 10.8936 16.2197 10.8936C16.4307 10.8936 16.6387 10.9346 16.8438 11.0166C17.0488 11.0928 17.2363 11.21 17.4062 11.3682L21.4844 15.2178V15.7803C21.4844 16.5479 21.2852 17.125 20.8867 17.5117C20.4883 17.8984 19.9053 18.0918 19.1377 18.0918H7.36914ZM10.8496 11.5615C10.334 11.5615 9.89453 11.377 9.53125 11.0078C9.16797 10.6387 8.98633 10.1963 8.98633 9.68066C8.98633 9.17676 9.16797 8.74023 9.53125 8.37109C9.89453 8.00195 10.334 7.81738 10.8496 7.81738C11.1895 7.81738 11.5 7.90234 11.7812 8.07227C12.0625 8.24219 12.2852 8.4707 12.4492 8.75781C12.6191 9.03906 12.7041 9.34668 12.7041 9.68066C12.7041 10.1963 12.5225 10.6387 12.1592 11.0078C11.7959 11.377 11.3594 11.5615 10.8496 11.5615ZM3.00098 14.4883C2.08105 14.4883 1.38965 14.2627 0.926758 13.8115C0.469727 13.3545 0.241211 12.6719 0.241211 11.7637V3.47559C0.241211 2.56738 0.469727 1.8877 0.926758 1.43652C1.38965 0.979492 2.08105 0.750977 3.00098 0.750977H15.0068C15.9209 0.750977 16.6094 0.979492 17.0723 1.43652C17.5352 1.89355 17.7666 2.57324 17.7666 3.47559V5.3916H16.3516V3.55469C16.3516 3.09766 16.2314 2.75195 15.9912 2.51758C15.751 2.2832 15.4141 2.16602 14.9805 2.16602H3.01855C2.5791 2.16602 2.24219 2.2832 2.00781 2.51758C1.77344 2.75195 1.65625 3.09766 1.65625 3.55469V11.6934C1.65625 12.1504 1.77344 12.4961 2.00781 12.7305C2.24219 12.959 2.5791 13.0732 3.01855 13.0732H5.18066V14.4883H3.00098ZM7.34277 18.5576C6.42285 18.5576 5.73145 18.3291 5.26855 17.8721C4.81152 17.4209 4.58301 16.7412 4.58301 15.833V7.54492C4.58301 6.63672 4.81152 5.95703 5.26855 5.50586C5.73145 5.04883 6.42285 4.82031 7.34277 4.82031H19.3486C20.2627 4.82031 20.9512 5.04883 21.4141 5.50586C21.877 5.96289 22.1084 6.64258 22.1084 7.54492V15.833C22.1084 16.7412 21.877 17.4209 21.4141 17.8721C20.9512 18.3291 20.2627 18.5576 19.3486 18.5576H7.34277ZM7.36035 17.1426H19.3223C19.7559 17.1426 20.0928 17.0254 20.333 16.791C20.5732 16.5625 20.6934 16.2197 20.6934 15.7627V7.62402C20.6934 7.16699 20.5732 6.82129 20.333 6.58691C20.0928 6.35254 19.7559 6.23535 19.3223 6.23535H7.36035C6.9209 6.23535 6.58398 6.35254 6.34961 6.58691C6.11523 6.82129 5.99805 7.16699 5.99805 7.62402V15.7627C5.99805 16.2197 6.11523 16.5625 6.34961 16.791C6.58398 17.0254 6.9209 17.1426 7.36035 17.1426Z" fill="white"/>
</svg>
