<svg width="20" height="20" viewBox="0 0 20 20" fill="none" xmlns="http://www.w3.org/2000/svg">
<path d="M10.8301 6.31299C11.223 6.40153 11.5771 6.53158 11.8926 6.70312C12.208 6.86914 12.4709 7.05729 12.6812 7.26758C13.395 7.97591 13.8682 8.75895 14.1006 9.6167C14.3385 10.4744 14.3385 11.3322 14.1006 12.1899C13.8682 13.0477 13.3978 13.828 12.6895 14.5308L9.71777 17.5024C9.01497 18.2052 8.2347 18.6756 7.37695 18.9136C6.52474 19.1515 5.66976 19.1515 4.81201 18.9136C3.95426 18.6812 3.16846 18.2052 2.45459 17.4858C1.74626 16.7775 1.27311 15.9945 1.03516 15.1367C0.797201 14.279 0.794434 13.4212 1.02686 12.5635C1.26481 11.7057 1.73796 10.9255 2.44629 10.2227L4.7373 7.95654C4.61556 8.36605 4.57959 8.79492 4.62939 9.24316C4.68473 9.69141 4.79264 10.0981 4.95312 10.4634L3.88232 11.5259C3.43962 11.9741 3.14355 12.4639 2.99414 12.9951C2.85026 13.5208 2.85303 14.0521 3.00244 14.5889C3.15186 15.1201 3.45068 15.6099 3.89893 16.0581C4.34163 16.5008 4.82861 16.7941 5.35986 16.938C5.89111 17.0874 6.42236 17.0874 6.95361 16.938C7.48486 16.7941 7.97184 16.5008 8.41455 16.0581L11.2534 13.2275C11.6961 12.7848 11.9894 12.2979 12.1333 11.7666C12.2827 11.2354 12.2827 10.7041 12.1333 10.1729C11.9839 9.63607 11.6851 9.14632 11.2368 8.70361C11.0155 8.47673 10.736 8.29134 10.3984 8.14746C10.0664 7.99805 9.69564 7.9012 9.28613 7.85693L10.8301 6.31299ZM9.16992 13.5845C8.77702 13.5015 8.42285 13.377 8.10742 13.2109C7.79199 13.0394 7.52913 12.8457 7.31885 12.6299C6.60498 11.9215 6.12907 11.1385 5.89111 10.2808C5.65869 9.42301 5.65869 8.56803 5.89111 7.71582C6.12907 6.85807 6.60221 6.07503 7.31055 5.3667L10.2739 2.40332C10.9823 1.69499 11.7625 1.22461 12.6147 0.992188C13.4725 0.754232 14.3275 0.754232 15.1797 0.992188C16.0374 1.22461 16.826 1.69775 17.5454 2.41162C18.2537 3.12549 18.7269 3.9113 18.9648 4.76904C19.2028 5.62679 19.2028 6.48454 18.9648 7.34229C18.7324 8.1945 18.262 8.97201 17.5537 9.6748L15.2627 11.9492C15.3844 11.5342 15.4176 11.1053 15.3623 10.6626C15.3125 10.2144 15.2074 9.80485 15.0469 9.43408L16.1094 8.37158C16.5521 7.92887 16.8454 7.44189 16.9893 6.91064C17.1387 6.37939 17.1387 5.84814 16.9893 5.31689C16.8398 4.78564 16.5438 4.2959 16.1011 3.84766C15.6528 3.40495 15.1631 3.10889 14.6318 2.95947C14.1061 2.81006 13.5776 2.81006 13.0464 2.95947C12.5151 3.10335 12.0254 3.39941 11.5771 3.84766L8.74658 6.67822C8.30387 7.12093 8.00781 7.60791 7.8584 8.13916C7.70898 8.66488 7.70898 9.19613 7.8584 9.73291C8.00781 10.2642 8.30664 10.7539 8.75488 11.2021C8.98177 11.4235 9.26123 11.6089 9.59326 11.7583C9.92529 11.9022 10.2961 11.999 10.7056 12.0488L9.16992 13.5845Z" fill="white"/>
</svg>
