<svg width="17" height="16" viewBox="0 0 17 16" fill="none" xmlns="http://www.w3.org/2000/svg">
<path d="M1.04102 15.2832C0.888672 15.2832 0.750977 15.248 0.62793 15.1777C0.510742 15.1074 0.416992 15.0107 0.34668 14.8877C0.276367 14.7705 0.241211 14.6357 0.241211 14.4834C0.241211 14.2666 0.317383 14.0762 0.469727 13.9121L7.35156 7.17969V8.12012L0.469727 1.39648C0.317383 1.23242 0.241211 1.04199 0.241211 0.825195C0.241211 0.672852 0.276367 0.535156 0.34668 0.412109C0.416992 0.289062 0.510742 0.192383 0.62793 0.12207C0.750977 0.0517578 0.888672 0.0166016 1.04102 0.0166016C1.26367 0.0166016 1.4541 0.0957031 1.6123 0.253906L8.58203 7.06543C8.66406 7.13574 8.72559 7.22363 8.7666 7.3291C8.81348 7.43457 8.83691 7.54297 8.83691 7.6543C8.83691 7.87695 8.75195 8.07324 8.58203 8.24316L1.62109 15.0459C1.54492 15.1221 1.45703 15.1807 1.35742 15.2217C1.26367 15.2627 1.1582 15.2832 1.04102 15.2832ZM8.89844 15.2832C8.74609 15.2832 8.6084 15.248 8.48535 15.1777C8.36816 15.1074 8.27148 15.0107 8.19531 14.8877C8.125 14.7705 8.08984 14.6357 8.08984 14.4834C8.08984 14.2666 8.16895 14.0762 8.32715 13.9121L15.2002 7.17969V8.12012L8.32715 1.39648C8.16895 1.23242 8.08984 1.04199 8.08984 0.825195C8.08984 0.672852 8.125 0.535156 8.19531 0.412109C8.27148 0.289062 8.36816 0.192383 8.48535 0.12207C8.6084 0.0517578 8.74609 0.0166016 8.89844 0.0166016C9.11523 0.0166016 9.30566 0.0957031 9.46973 0.253906L16.4307 7.06543C16.5127 7.13574 16.5771 7.22363 16.624 7.3291C16.6709 7.43457 16.6943 7.54297 16.6943 7.6543C16.6943 7.87695 16.6064 8.07324 16.4307 8.24316L9.46973 15.0459C9.39355 15.1221 9.30566 15.1807 9.20605 15.2217C9.1123 15.2627 9.00977 15.2832 8.89844 15.2832Z" fill="white"/>
</svg>
