<svg xmlns="http://www.w3.org/2000/svg" width="30" height="31" fill="none">
<path fill="#fff" d="M15 30.365c-2.06 0-3.994-.39-5.8-1.172a14.993 14.993 0 0 1-4.762-3.208 15.197 15.197 0 0 1-3.222-4.76C.444 19.418.059 17.485.059 15.424c0-2.06.385-3.994 1.157-5.801a15.196 15.196 0 0 1 3.222-4.76A14.873 14.873 0 0 1 9.2 1.64C11.006.868 12.94.482 15 .482c2.06 0 3.994.386 5.8 1.158a14.874 14.874 0 0 1 4.761 3.222 14.992 14.992 0 0 1 3.209 4.761c.78 1.807 1.171 3.74 1.171 5.8 0 2.061-.39 3.995-1.171 5.802a14.993 14.993 0 0 1-7.97 7.968c-1.806.782-3.74 1.172-5.8 1.172Zm0-2.49c1.719 0 3.33-.322 4.834-.967a12.551 12.551 0 0 0 3.97-2.68 12.552 12.552 0 0 0 2.68-3.97c.645-1.504.967-3.115.967-4.834 0-1.719-.322-3.33-.967-4.834a12.338 12.338 0 0 0-2.68-3.97 12.552 12.552 0 0 0-3.97-2.68c-1.504-.645-3.115-.967-4.834-.967-1.719 0-3.33.322-4.834.966a12.552 12.552 0 0 0-3.97 2.681 12.337 12.337 0 0 0-2.68 3.97c-.645 1.504-.967 3.115-.967 4.834 0 1.719.322 3.33.967 4.834a12.551 12.551 0 0 0 2.68 3.97 12.551 12.551 0 0 0 3.97 2.68c1.504.645 3.115.967 4.834.967Zm2.886-5.215c-.196.186-.454.274-.777.264a1.135 1.135 0 0 1-.776-.308l-6.108-5.757a1.92 1.92 0 0 1-.557-.908 2.142 2.142 0 0 1 0-1.055 1.92 1.92 0 0 1 .557-.908l6.108-5.742c.225-.215.483-.327.776-.337a.986.986 0 0 1 .762.293c.225.205.342.464.352.777.01.312-.098.576-.323.79l-6.02 5.655 6.02 5.669c.215.205.323.464.323.776 0 .313-.113.576-.337.791Z"/>
</svg>
