<svg width="8" height="7" viewBox="0 0 8 7" fill="none" xmlns="http://www.w3.org/2000/svg">
<path d="M0.591309 6.65479C0.395345 6.65479 0.247233 6.60465 0.146973 6.50439C0.0489909 6.40413 0 6.28451 0 6.14551C0 6.02474 0.0341797 5.90625 0.102539 5.79004L3.27783 0.283691C3.33024 0.192546 3.40202 0.123047 3.49316 0.0751953C3.58431 0.0250651 3.68343 0 3.79053 0C3.89534 0 3.99333 0.0250651 4.08447 0.0751953C4.1779 0.123047 4.24967 0.192546 4.2998 0.283691L7.47852 5.79004C7.5446 5.90625 7.57764 6.02474 7.57764 6.14551C7.57764 6.28451 7.52751 6.40413 7.42725 6.50439C7.32926 6.60465 7.18229 6.65479 6.98633 6.65479H0.591309Z" fill="#133365"/>
</svg>
